<svg data-v-0dd9719b="" version="1.0" xmlns="http://www.w3.org/2000/svg" xmlns:xlink="http://www.w3.org/1999/xlink" width="100%" height="100%" viewBox="0 0 340.000000 250.000000" preserveAspectRatio="xMidYMid meet" color-interpolation-filters="sRGB" style="margin: auto;"> <rect data-v-0dd9719b="" x="0" y="0" width="100%" height="100%" fill="#fff" fill-opacity="1" class="background"></rect> <rect data-v-0dd9719b="" x="0" y="0" width="100%" height="100%" fill="url(#watermark)" fill-opacity="1" class="watermarklayer"></rect> <g data-v-0dd9719b="" fill="#333" class="icon-text-wrapper icon-svg-group iconsvg" transform="translate(47.224998474121094,95.00149917616508)"><g class="iconsvg-imagesvg" transform="translate(0,0)"><g><rect fill="#333" fill-opacity="0" stroke-width="2" x="0" y="0" width="60" height="59.997000149992495" class="image-rect"></rect> <svg x="0" y="0" width="60" height="59.997000149992495" filtersec="colorsb3950664382" class="image-svg-svg primary" style="overflow: visible;"><svg xmlns="http://www.w3.org/2000/svg" viewBox="-0.0020288825035095215 0.0026935935020446777 99.99933624267578 99.99472045898438"><path d="M81.76 63.52V5.73a61.31 61.31 0 0 0-15.88-4.51v62.3zM99.13 63.52c2.61-19.72-.67-43.63-9.85-52.8a23.28 23.28 0 0 0-5.14-3.78v56.58z" fill="#00a5e3"></path><path d="M36.5 81.78h57.76a61.7 61.7 0 0 0 4.52-15.88H36.5zM36.5 99.13c19.71 2.61 43.61-.67 52.78-9.84a23.66 23.66 0 0 0 3.77-5.13H36.5z" fill="#8bc53f"></path><path d="M18.26 36.52v57.76a61.82 61.82 0 0 0 15.88 4.51V36.52zM.86 36.52c-2.6 19.71.68 43.59 9.86 52.76a23.44 23.44 0 0 0 5.16 3.79V36.52z" fill="#ffca02"></path><path d="M63.52 18.26H5.72a61.82 61.82 0 0 0-4.51 15.88h62.31zM63.52.87c-19.72-2.61-43.63.67-52.8 9.85a23.44 23.44 0 0 0-3.79 5.16h56.59z" fill="#ec1b23"></path></svg></svg> <!----></g></g> <g transform="translate(67,8.437248229980469)"><g data-gra="path-name" fill-rule="" class="tp-name iconsvg-namesvg" transform="translate(0,0)"><g transform="scale(1)"><g><path d="M14.44-27.82L22.77-27.82 21.8-26.22 35.45-26.22 34.94-22.7 19.68-22.7 18.78-21.25 34.2-21.25 33.3-14.71 34.9-14.71 34.4-11.11 32.79-11.11 32.32-7.83 33.34-7.83 32.87-4.46 31.85-4.46 31.54-2.35Q31.38-1.21 30.72-0.45 30.05 0.31 29.27 0.31L29.27 0.31 17.02 0.31 20.66-3.25 25.9-3.25 26.1-4.46 12.13-4.46 13.07-11.11 10.72-11.11 11.23-14.71 13.58-14.71 14.17-18.94 11.03-18.94 15.77-26.45 14.44-27.82ZM6.42 0.31L0.55 0.31 4.07-10.76 9.9-10.76 6.42 0.31ZM10.02-12.25L4.15-12.25 3.8-18.94 9.63-18.94 10.02-12.25ZM11.15-20.39L5.28-20.39 4.93-27.08 10.76-27.08 11.15-20.39ZM19.8-17.96L19.33-14.52 21.37-14.52 21.13-17.02 25.75-17.02 25.98-14.52 27.51-14.52 27.98-17.96 19.8-17.96ZM26.57-7.79L27.04-11.31 18.86-11.31 18.39-7.79 20.62-7.79 20.35-10.37 25.16-10.37 25.43-7.79 26.57-7.79ZM38.74-25.94L51.34-25.94 51.42-26.33 50.17-27.82 59.09-27.82 58.81-25.94 71.45-25.94 70.94-22.23 58.27-22.23 58.03-20.39 69.18-20.39 66.64-2.23Q66.44-1.1 65.58-0.37 64.72 0.35 63.59 0.35L63.59 0.35 57.33 0.35 60.85-3.29 62.73-16.67 44.88-16.67 42.46 0.35 36.51 0.35 39.44-20.39 50.56-20.39 50.83-22.23 38.23-22.23 38.74-25.94ZM51.73-15.18L52.32-12.95 54.23-12.95 55.45-15.18 61-15.18 59.79-12.95 61.08-12.95 60.61-9.63 55.57-9.63 55.37-8.1 60.42-8.1 59.95-4.77 54.9-4.77 54.31-0.67 48.76-0.67 49.34-4.77 44.3-4.77 44.77-8.1 49.81-8.1 50.01-9.63 44.96-9.63 45.43-12.95 46.72-12.95 46.13-15.18 51.73-15.18ZM72.67-6.38L75.17-24.18 79.98-24.18 80.3-26.3 79.43-27.78 85.85-27.78 85.34-24.18 89.92-24.18 87.42-6.38 82.8-6.38 81.86 0.31 76.54 0.31 77.48-6.38 72.67-6.38ZM106.87-18.16L105.18-6.18Q104.99-4.81 104.67-3.64 104.36-2.47 103.95-1.6 103.54-0.74 103.05-0.23 102.56 0.27 102.01 0.27L102.01 0.27 96.07 0.27 98.96-2.9 100.6-14.56 89.37-14.56 89.92-18.43 98.57-23.32 91.21-23.32 91.72-27.04 107.33-27.04 106.83-23.32 97.9-18.16 106.87-18.16ZM90.59-13.7L95.09-13.7 90.74-0.51 86.24-0.51 90.59-13.7ZM95.95-13.7L100.41-13.7 96.07-0.51 91.6-0.51 95.95-13.7ZM83.31-9.78L84.44-9.78 84.99-13.73 83.86-13.73 83.31-9.78ZM86.09-21.44L84.95-21.44 84.4-17.53 85.54-17.53 86.09-21.44ZM77.4-13.73L76.85-9.78 77.95-9.78 78.5-13.73 77.4-13.73ZM78.5-21.44L77.95-17.53 79.04-17.53 79.59-21.44 78.5-21.44ZM122.48-18.47L142.2-18.47 141.65-14.6 136.25-14.6 134.53-2.27Q134.37-1.13 133.47-0.41 132.57 0.31 131.48 0.31L131.48 0.31 123.73 0.31 127.25-3.33 128.82-14.6 121.93-14.6 122.48-18.47ZM120.72-21.87L120.09-17.41 117.59 0.35 110.5 0.35 112.81-16.08 109.76-15.53 110.39-20 120.72-21.87ZM124.79-27.04L142.24-27.04 141.69-23.2 124.24-23.2 124.79-27.04ZM121.58-27.82L120.95-23.36 110.58-21.48 111.21-25.94 121.58-27.82ZM166.58-22.62L167.24-20.78 168.97-20.78 171.9-23.36 159.26-23.36 159.77-27.08 179.1-27.08 178.47-22.62 176.36-20.78 178.94-20.78 177.18-8.22Q177.03-7.08 176.17-6.3 175.3-5.52 174.17-5.52L174.17-5.52 169.75-5.52 171.86-7.36 172.02-8.49 169.43-8.49 169.04-5.52 163.84-5.52 164.23-8.49 161.61-8.49 161.22-5.52 156.01-5.52 158.13-20.78 160.55-20.78 159.89-22.62 166.58-22.62ZM151.55-0.31L144.86-0.31 146.86-4.03 148.73-17.41 147.25-17.41 147.8-21.13 155.97-21.13 153.78-5.63 159.14-4.03 177.34-4.03 176.83-0.31 156.01-0.31 152.18-1.45 151.55-0.31ZM148.62-27.08L154.57-27.08 156.17-22.62 150.22-22.62 148.62-27.08ZM162.86-17.41L162.63-15.93 165.29-15.93 165.48-17.41 162.86-17.41ZM162.23-12.95L162.04-11.47 164.66-11.47 164.86-12.95 162.23-12.95ZM170.06-12.95L169.87-11.47 172.41-11.47 172.64-12.95 170.06-12.95ZM173.27-17.41L170.69-17.41 170.49-15.93 173.03-15.93 173.27-17.41Z" transform="translate(-0.550000011920929, 27.81999969482422)"></path></g> <!----> <!----> <!----> <!----> <!----> <!----> <!----></g></g> <g data-gra="path-slogan" fill-rule="" class="tp-slogan iconsvg-slogansvg" fill="#333" transform="translate(11.955001831054688,34.170000076293945)"><!----> <!----> <g transform="scale(1, 1)"><g transform="scale(1)"><path d="M2.06-5.06L6.56-5.06L6.56-8.58L7.73-8.58L7.73 0L6.56 0L6.56-3.98L2.06-3.98L2.06 0L0.89 0L0.89-8.58L2.06-8.58L2.06-5.06ZM15.19 0L14.34-2.48L10.88-2.48L9.98 0L8.81 0L12.05-8.58L13.36-8.58L16.45 0L15.19 0ZM12.61-7.31L11.25-3.52L13.92-3.52L12.66-7.31L12.61-7.31ZM17.67-8.58L18.84-8.58L18.84 0L17.67 0L17.67-8.58ZM22.22-8.58L26.53-1.64L26.53-8.58L27.66-8.58L27.66 0L26.34 0L21.98-6.94L21.94-6.94L21.94 0L20.81 0L20.81-8.58L22.22-8.58ZM35.11 0L34.27-2.48L30.80-2.48L29.91 0L28.73 0L31.97-8.58L33.28-8.58L36.38 0L35.11 0ZM32.53-7.31L31.17-3.52L33.84-3.52L32.58-7.31L32.53-7.31ZM38.81-8.58L43.13-1.64L43.13-8.58L44.25-8.58L44.25 0L42.94 0L38.58-6.94L38.53-6.94L38.53 0L37.41 0L37.41-8.58L38.81-8.58ZM56.53-6.05L56.53-6.05L55.41-6.05Q54.98-7.78 53.02-7.83L53.02-7.83Q50.30-7.69 50.20-4.36L50.20-4.36Q50.20-0.80 53.06-0.80L53.06-0.80Q55.03-0.84 55.50-3.19L55.50-3.19L56.63-3.19Q56.11 0.05 52.83 0.14L52.83 0.14Q49.08 0 48.98-4.31L48.98-4.31Q49.17-8.63 53.02-8.81L53.02-8.81Q56.06-8.72 56.53-6.05ZM59.16-5.06L63.66-5.06L63.66-8.58L64.83-8.58L64.83 0L63.66 0L63.66-3.98L59.16-3.98L59.16 0L57.98 0L57.98-8.58L59.16-8.58L59.16-5.06ZM72.28 0L71.44-2.48L67.97-2.48L67.08 0L65.91 0L69.14-8.58L70.45-8.58L73.55 0L72.28 0ZM69.70-7.31L68.34-3.52L71.02-3.52L69.75-7.31L69.70-7.31ZM75.98-8.58L80.30-1.64L80.30-8.58L81.42-8.58L81.42 0L80.11 0L75.75-6.94L75.70-6.94L75.70 0L74.58 0L74.58-8.58L75.98-8.58ZM89.63-3.61L87-3.61L87-4.59L90.75-4.59L90.75 0L90 0L89.72-1.08Q88.73 0.09 86.91 0.14L86.91 0.14Q85.17 0.14 84.23-0.75L84.23-0.75Q82.83-2.06 82.88-4.36L82.88-4.36Q83.20-8.63 86.95-8.81L86.95-8.81Q90.14-8.63 90.61-6L90.61-6L89.48-6Q89.02-7.78 86.91-7.83L86.91-7.83Q84.23-7.64 84.09-4.31L84.09-4.31Q84.09-0.75 86.95-0.75L86.95-0.75Q87.98-0.75 88.73-1.31L88.73-1.31Q89.67-2.06 89.63-3.61L89.63-3.61ZM99.28-8.58L96.38-4.41L99.42 0L97.97 0L95.63-3.52L93.28 0L91.88 0L94.97-4.41L92.06-8.58L93.52-8.58L95.67-5.30L97.88-8.58L99.28-8.58ZM100.69-8.58L101.86-8.58L101.86 0L100.69 0L100.69-8.58ZM105.23-8.58L109.55-1.64L109.55-8.58L110.67-8.58L110.67 0L109.36 0L105-6.94L104.95-6.94L104.95 0L103.83 0L103.83-8.58L105.23-8.58ZM118.88-3.61L116.25-3.61L116.25-4.59L120-4.59L120 0L119.25 0L118.97-1.08Q117.98 0.09 116.16 0.14L116.16 0.14Q114.42 0.14 113.48-0.75L113.48-0.75Q112.08-2.06 112.13-4.36L112.13-4.36Q112.45-8.63 116.20-8.81L116.20-8.81Q119.39-8.63 119.86-6L119.86-6L118.73-6Q118.27-7.78 116.16-7.83L116.16-7.83Q113.48-7.64 113.34-4.31L113.34-4.31Q113.34-0.75 116.20-0.75L116.20-0.75Q117.23-0.75 117.98-1.31L117.98-1.31Q118.92-2.06 118.88-3.61L118.88-3.61ZM128.77-7.64L126.42-7.64L126.42-4.64L128.72-4.64Q130.50-4.64 130.50-6.19L130.50-6.19Q130.50-7.59 128.77-7.64L128.77-7.64ZM129.14-3.61L126.42-3.61L126.42 0L125.25 0L125.25-8.58L129.14-8.58Q131.58-8.48 131.67-6.19L131.67-6.19Q131.53-3.70 129.14-3.61L129.14-3.61ZM138.75 0L137.91-2.48L134.44-2.48L133.55 0L132.38 0L135.61-8.58L136.92-8.58L140.02 0L138.75 0ZM136.17-7.31L134.81-3.52L137.48-3.52L136.22-7.31L136.17-7.31ZM147.33-6.09L147.33-6.09L146.25-6.09Q146.16-7.73 144.09-7.83L144.09-7.83Q142.17-7.78 142.17-6.33L142.17-6.33Q142.17-5.39 143.20-5.25L143.20-5.25L145.64-4.69Q147.56-4.22 147.56-2.34L147.56-2.34Q147.52 0.05 144.19 0.14L144.19 0.14Q142.36 0.14 141.61-0.61L141.61-0.61Q140.67-1.31 140.72-2.77L140.72-2.77L141.84-2.77Q141.89-0.80 144.19-0.75L144.19-0.75Q146.44-0.80 146.48-2.20L146.48-2.20Q146.67-3.38 144.61-3.75L144.61-3.75L142.83-4.13Q141-4.64 141-6.19L141-6.19Q141.14-8.72 144-8.81L144-8.81Q147.23-8.81 147.33-6.09ZM155.30-6.09L155.30-6.09L154.22-6.09Q154.13-7.73 152.06-7.83L152.06-7.83Q150.14-7.78 150.14-6.33L150.14-6.33Q150.14-5.39 151.17-5.25L151.17-5.25L153.61-4.69Q155.53-4.22 155.53-2.34L155.53-2.34Q155.48 0.05 152.16 0.14L152.16 0.14Q150.33 0.14 149.58-0.61L149.58-0.61Q148.64-1.31 148.69-2.77L148.69-2.77L149.81-2.77Q149.86-0.80 152.16-0.75L152.16-0.75Q154.41-0.80 154.45-2.20L154.45-2.20Q154.64-3.38 152.58-3.75L152.58-3.75L150.80-4.13Q148.97-4.64 148.97-6.19L148.97-6.19Q149.11-8.72 151.97-8.81L151.97-8.81Q155.20-8.81 155.30-6.09Z" transform="translate(-0.890625, 8.8125)"></path></g></g></g></g></g><defs v-gra="od"></defs></svg>